<?xml version="1.0" encoding="UTF-8"?>
<svg xmlns="http://www.w3.org/2000/svg" xmlns:xlink="http://www.w3.org/1999/xlink" width="1920" height="1080" viewBox="0 0 1920 1080">
<defs>
<g>
<g id="glyph-0-0">
<path d="M 0.730469 -0.0546875 C 0.878906 -0.0546875 0.976562 -0.136719 1.03125 -0.296875 C 1.085938 -0.457031 1.113281 -0.6875 1.113281 -0.992188 C 1.113281 -1.234375 1.097656 -1.425781 1.066406 -1.570312 C 1.003906 -1.839844 0.886719 -1.972656 0.71875 -1.972656 C 0.550781 -1.972656 0.433594 -1.835938 0.371094 -1.558594 C 0.339844 -1.410156 0.324219 -1.214844 0.324219 -0.976562 C 0.324219 -0.75 0.339844 -0.570312 0.371094 -0.433594 C 0.4375 -0.179688 0.554688 -0.0546875 0.730469 -0.0546875 Z M 0.726562 -2.054688 C 0.957031 -2.054688 1.132812 -1.933594 1.257812 -1.695312 C 1.359375 -1.5 1.410156 -1.277344 1.410156 -1.023438 C 1.410156 -0.828125 1.378906 -0.640625 1.316406 -0.464844 C 1.199219 -0.136719 1 0.0273438 0.714844 0.0273438 C 0.519531 0.0273438 0.355469 -0.0625 0.230469 -0.238281 C 0.09375 -0.429688 0.0273438 -0.6875 0.0273438 -1.011719 C 0.0273438 -1.269531 0.0703125 -1.492188 0.164062 -1.675781 C 0.285156 -1.925781 0.472656 -2.054688 0.726562 -2.054688 Z "/>
</g>
<g id="glyph-0-1">
<path d="M 0.5 0.0351562 C 0.449219 0.0351562 0.410156 0.0195312 0.378906 -0.015625 C 0.34375 -0.046875 0.328125 -0.0859375 0.328125 -0.132812 C 0.328125 -0.179688 0.34375 -0.222656 0.378906 -0.253906 C 0.410156 -0.285156 0.453125 -0.304688 0.5 -0.304688 C 0.546875 -0.304688 0.585938 -0.285156 0.617188 -0.253906 C 0.648438 -0.222656 0.667969 -0.179688 0.667969 -0.132812 C 0.667969 -0.0859375 0.652344 -0.046875 0.617188 -0.015625 C 0.585938 0.0195312 0.546875 0.0351562 0.5 0.0351562 Z "/>
</g>
<g id="glyph-0-2">
<path d="M 0.769531 -0.0507812 C 0.882812 -0.0507812 0.96875 -0.0820312 1.027344 -0.144531 C 1.085938 -0.210938 1.117188 -0.289062 1.117188 -0.386719 C 1.117188 -0.492188 1.085938 -0.582031 1.023438 -0.648438 C 0.960938 -0.714844 0.832031 -0.816406 0.640625 -0.953125 C 0.554688 -0.898438 0.492188 -0.828125 0.453125 -0.746094 C 0.414062 -0.660156 0.394531 -0.578125 0.394531 -0.496094 C 0.394531 -0.359375 0.429688 -0.253906 0.5 -0.171875 C 0.570312 -0.0898438 0.660156 -0.0507812 0.769531 -0.0507812 Z M 0.789062 -1.191406 C 0.882812 -1.257812 0.945312 -1.3125 0.980469 -1.355469 C 1.042969 -1.433594 1.074219 -1.523438 1.074219 -1.632812 C 1.074219 -1.726562 1.046875 -1.808594 0.988281 -1.875 C 0.929688 -1.941406 0.839844 -1.972656 0.722656 -1.972656 C 0.628906 -1.972656 0.554688 -1.945312 0.496094 -1.886719 C 0.4375 -1.828125 0.40625 -1.757812 0.40625 -1.675781 C 0.40625 -1.582031 0.441406 -1.496094 0.511719 -1.417969 C 0.582031 -1.335938 0.671875 -1.261719 0.789062 -1.191406 Z M 0.558594 -1.015625 C 0.425781 -1.121094 0.335938 -1.207031 0.289062 -1.269531 C 0.214844 -1.363281 0.179688 -1.46875 0.179688 -1.585938 C 0.179688 -1.71875 0.234375 -1.828125 0.34375 -1.921875 C 0.453125 -2.011719 0.59375 -2.058594 0.765625 -2.058594 C 0.925781 -2.058594 1.054688 -2.015625 1.148438 -1.925781 C 1.242188 -1.839844 1.289062 -1.742188 1.289062 -1.625 C 1.289062 -1.507812 1.242188 -1.40625 1.144531 -1.3125 C 1.089844 -1.261719 1 -1.199219 0.875 -1.132812 C 1.042969 -1.007812 1.167969 -0.894531 1.238281 -0.804688 C 1.3125 -0.710938 1.347656 -0.601562 1.347656 -0.472656 C 1.347656 -0.332031 1.292969 -0.210938 1.1875 -0.113281 C 1.078125 -0.015625 0.933594 0.03125 0.753906 0.03125 C 0.589844 0.03125 0.453125 -0.0117188 0.335938 -0.101562 C 0.21875 -0.191406 0.164062 -0.3125 0.164062 -0.457031 C 0.164062 -0.585938 0.203125 -0.695312 0.285156 -0.792969 C 0.335938 -0.855469 0.425781 -0.929688 0.558594 -1.015625 Z "/>
</g>
</g>
</defs>
<g fill="rgb(77.254902%, 5.490196%, 12.156863%)" fill-opacity="1">
<use xlink:href="#glyph-0-0" x="30" y="22.291992"/>
<use xlink:href="#glyph-0-1" x="32" y="22.291992"/>
<use xlink:href="#glyph-0-2" x="33" y="22.291992"/>
<use xlink:href="#glyph-0-2" x="35" y="22.291992"/>
</g>
</svg>
